<?xml version="1.0" encoding="UTF-8"?>
<svg viewBox="-2 -2 28 28" xmlns="http://www.w3.org/2000/svg" width="512" height="512">
  <defs>
    <linearGradient id="gFrame" x1="0" y1="0" x2="0" y2="1">
      <stop offset="0" stop-color="#3DA0FF"/>
      <stop offset="1" stop-color="#2F6BFF"/>
    </linearGradient>
    <linearGradient id="gPerson" x1="0" y1="0" x2="0" y2="1">
      <stop offset="0" stop-color="#FFC93D"/>
      <stop offset="1" stop-color="#F5972D"/>
    </linearGradient>
  </defs>
  <g transform="translate(0.9 0) skewX(-5)" fill="none" stroke="url(#gFrame)"
     stroke-width="1.1" stroke-linecap="round" stroke-linejoin="round">
    <path d="M18 5 L20.8 19.9"/>
    <path d="M6 4 H17 a1 1 0 0 1 1 1 V19 a1 1 0 0 1 -1 1 H6 a1 1 0 0 1 -1 -1 V5 a1 1 0 0 1 1 -1 Z"/>
  </g>
  <g fill="url(#gPerson)">
    <circle cx="11.3" cy="9.3" r="2.3"/>
    <path d="M7.3 17.5 C7.3 13.4 8.9 12.6 11.3 12.6 C13.7 12.6 15.3 13.4 15.3 17.5 Z"/>
  </g>
</svg>
